<?xml version="1.0" encoding="UTF-8" standalone="no"?>
<svg xmlns:rdf="http://www.w3.org/1999/02/22-rdf-syntax-ns#" xmlns="http://www.w3.org/2000/svg" viewBox="0 0 48 48"><path d="M20.01 34h8a1 1 0 1 1 0 2h-8a1 1 0 1 1 0-2m-5-10.498a1 1 0 0 1 1.999 0c0 .75.119 1.47.337 2.147a.989.989 0 0 1-.246 1c-.52.522-1.424.326-1.652-.374a8.952 8.952 0 0 1-.439-2.773m14.002 0a5 5 0 0 1-5 5 4.93 4.93 0 0 1-2.026-.435.713.713 0 0 0-.795.149l-.496.495c-.303.304-.236.824.146 1.02.951.49 2.026.77 3.17.77a7 7 0 0 0 7.002-6.999 1 1 0 0 1 2 0c0 4.97-4.03 8.999-9.002 8.999a8.902 8.902 0 0 1-4.708-1.344.969.969 0 0 0-1.196.14l-4.399 4.398a1 1 0 0 1-1.414-1.414l22-21.988a1 1 0 0 1 1.414 1.413l-6.11 6.107a1.998 1.998 0 0 0-.586 1.414v2.275zm-.721-8.036L19.9 23.85a.527.527 0 0 1-.899-.373l.008-6.474a5 5 0 0 1 9.403-2.37.704.704 0 0 1-.122.832z"></path></svg>
