<?xml version="1.0" encoding="UTF-8" standalone="no"?>
<svg
   viewBox="0 0 48 48"
   version="1.1"
   id="svg2210"
   sodipodi:docname="unknown.svg"
   inkscape:version="1.1 (c4e8f9e, 2021-05-24)"
   inkscape:export-filename="/Users/pgriess/src/pgriess-streamdeck-fb/active.png"
   inkscape:export-xdpi="96"
   inkscape:export-ydpi="96"
   xmlns:inkscape="http://www.inkscape.org/namespaces/inkscape"
   xmlns:sodipodi="http://sodipodi.sourceforge.net/DTD/sodipodi-0.dtd"
   xmlns="http://www.w3.org/2000/svg"
   xmlns:svg="http://www.w3.org/2000/svg">
  <defs
     id="defs2214" />
  <sodipodi:namedview
     id="namedview2212"
     pagecolor="#ffffff"
     bordercolor="#666666"
     borderopacity="1.0"
     inkscape:pageshadow="2"
     inkscape:pageopacity="0.0"
     inkscape:pagecheckerboard="0"
     showgrid="false"
     inkscape:zoom="18.1875"
     inkscape:cx="22.350515"
     inkscape:cy="24.659794"
     inkscape:window-width="1726"
     inkscape:window-height="1151"
     inkscape:window-x="1387"
     inkscape:window-y="377"
     inkscape:window-maximized="0"
     inkscape:current-layer="layer4" />
  <g
     inkscape:groupmode="layer"
     id="layer4"
     inkscape:label="Layer 2"
     style="display:inline">
    <circle
       style="display:inline;fill:#646464;fill-rule:evenodd;fill-opacity:1"
       id="path1164"
       cx="24"
       cy="24"
       r="19.183947" />
  </g>
  <g
     inkscape:groupmode="layer"
     id="layer3"
     inkscape:label="Layer 1"
     style="display:inline">
    <path
       d="m 20,34 h 8 a 1,1 0 0 1 0,2 h -8 a 1,1 0 0 1 0,-2 m 4,-5.5 a 5,5 0 0 1 -5,-5 V 17 a 5,5 0 0 1 10,0 v 6.5 a 5,5 0 0 1 -5,5 m 0,4 a 9,9 0 0 1 -9,-9 1,1 0 0 1 2,0 7,7 0 1 0 14,0 1,1 0 0 1 2,0 9,9 0 0 1 -9,9"
       id="path2208" />
  </g>
</svg>
