<?xml version="1.0" encoding="UTF-8" standalone="no"?>
<svg
   height="48px"
   viewBox="0 0 24 24"
   width="48px"
   fill="#000000"
   version="1.1"
   id="svg1332"
   sodipodi:docname="icon.svg"
   inkscape:version="1.1 (c4e8f9e, 2021-05-24)"
   inkscape:export-filename="/Users/pgriess/src/pgriess-streamdeck-workrooms/assets/store.png"
   inkscape:export-xdpi="144"
   inkscape:export-ydpi="144"
   xmlns:inkscape="http://www.inkscape.org/namespaces/inkscape"
   xmlns:sodipodi="http://sodipodi.sourceforge.net/DTD/sodipodi-0.dtd"
   xmlns="http://www.w3.org/2000/svg"
   xmlns:svg="http://www.w3.org/2000/svg">
  <defs
     id="defs1336" />
  <sodipodi:namedview
     id="namedview1334"
     pagecolor="#ffffff"
     bordercolor="#666666"
     borderopacity="1.0"
     inkscape:pageshadow="2"
     inkscape:pageopacity="0.0"
     inkscape:pagecheckerboard="0"
     showgrid="false"
     inkscape:zoom="17.020833"
     inkscape:cx="9.1652389"
     inkscape:cy="24.705019"
     inkscape:window-width="1296"
     inkscape:window-height="997"
     inkscape:window-x="1087"
     inkscape:window-y="598"
     inkscape:window-maximized="0"
     inkscape:current-layer="svg1332" />
  <path
     d="M0 0h24v24H0V0z"
     fill="none"
     id="path1328" />
  <path
     d="M12 1.95c-5.52 0-10 4.48-10 10s4.48 10 10 10h5v-2h-5c-4.34 0-8-3.66-8-8s3.66-8 8-8 8 3.66 8 8v1.43c0 .79-.71 1.57-1.5 1.57s-1.5-.78-1.5-1.57v-1.43c0-2.76-2.24-5-5-5s-5 2.24-5 5 2.24 5 5 5c1.38 0 2.64-.56 3.54-1.47.65.89 1.77 1.47 2.96 1.47 1.97 0 3.5-1.6 3.5-3.57v-1.43c0-5.52-4.48-10-10-10zm0 13c-1.66 0-3-1.34-3-3s1.34-3 3-3 3 1.34 3 3-1.34 3-3 3z"
     id="path1330"
     style="fill:#c8c8c8;fill-opacity:1"
     inkscape:export-filename="/Users/pgriess/src/pgriess-streamdeck-workrooms/assets/category.png"
     inkscape:export-xdpi="67.199997"
     inkscape:export-ydpi="67.199997">
    <desc
       id="desc1143">Derived from https://developers.google.com/fonts/, where icons are licensed under the Apache License 2.0. There is no LICENSE file listing Google or whoever the license-holder is; they just link to the generic ALv2 URL.</desc>
  </path>
</svg>
