<?xml version="1.0" encoding="UTF-8" standalone="no"?>
<svg
   enable-background="new 0 0 24 24"
   height="48px"
   viewBox="0 0 24 24"
   width="48px"
   fill="#000000"
   version="1.1"
   id="svg997"
   sodipodi:docname="states.svg"
   inkscape:version="1.1 (c4e8f9e, 2021-05-24)"
   inkscape:export-filename="/Users/pgriess/src/pgriess-streamdeck-workrooms/assets/state_microphone_muted@2x.png"
   inkscape:export-xdpi="288"
   inkscape:export-ydpi="288"
   xmlns:inkscape="http://www.inkscape.org/namespaces/inkscape"
   xmlns:sodipodi="http://sodipodi.sourceforge.net/DTD/sodipodi-0.dtd"
   xmlns="http://www.w3.org/2000/svg"
   xmlns:svg="http://www.w3.org/2000/svg">
  <defs
     id="defs1001" />
  <sodipodi:namedview
     id="namedview999"
     pagecolor="#ffffff"
     bordercolor="#666666"
     borderopacity="1.0"
     inkscape:pageshadow="2"
     inkscape:pageopacity="0.0"
     inkscape:pagecheckerboard="0"
     showgrid="false"
     inkscape:zoom="5.6568542"
     inkscape:cx="13.876971"
     inkscape:cy="24.837126"
     inkscape:window-width="1586"
     inkscape:window-height="997"
     inkscape:window-x="0"
     inkscape:window-y="25"
     inkscape:window-maximized="0"
     inkscape:current-layer="layer3" />
  <g
     id="g985">
    <rect
       fill="none"
       height="24"
       width="24"
       id="rect979" />
    <rect
       fill="none"
       height="24"
       width="24"
       id="rect981" />
    <rect
       fill="none"
       height="24"
       width="24"
       id="rect983" />
  </g>
  <g
     inkscape:groupmode="layer"
     id="layer1"
     inkscape:label="Background - Grey"
     style="display:none">
    <circle
       style="fill:#646464;stroke-width:0.719963"
       id="path1677"
       cx="12"
       cy="12"
       r="10.5" />
  </g>
  <g
     inkscape:groupmode="layer"
     id="layer3"
     inkscape:label="Background - Light Grey"
     style="display:none">
    <circle
       style="display:inline;fill:#969696;fill-opacity:1;stroke-width:0.719963"
       id="path1677-8"
       cx="12"
       cy="12"
       r="10.5"
       inkscape:export-filename="/Users/pgriess/src/pgriess-streamdeck-workrooms/assets/action_microphone@2x.png"
       inkscape:export-xdpi="80"
       inkscape:export-ydpi="80" />
  </g>
  <g
     inkscape:groupmode="layer"
     id="layer4"
     inkscape:label="Background - Green"
     style="display:inline">
    <circle
       style="display:inline;fill:#64af64;fill-opacity:1;stroke-width:0.719963"
       id="path1677-1"
       cx="12"
       cy="12"
       r="10.5" />
  </g>
  <g
     inkscape:groupmode="layer"
     id="g2588"
     inkscape:label="Background - Red"
     style="display:none">
    <circle
       style="display:inline;fill:#af6464;fill-opacity:1;stroke-width:0.719963"
       id="circle2586"
       cx="12"
       cy="12"
       r="10.5" />
  </g>
  <g
     inkscape:groupmode="layer"
     id="layer2"
     inkscape:label="Icon - On"
     style="display:none">
    <g
       id="g995"
       transform="translate(0,0.5)">
      <g
         id="g987" />
      <g
         id="g993">
        <path
           d="m 12,13.536266 c 1.352081,0 2.443519,-1.091439 2.443519,-2.443519 V 6.2057094 C 14.443519,4.853629 13.352081,3.7621906 12,3.7621906 c -1.352081,0 -2.4435187,1.0914384 -2.4435187,2.4435188 v 4.8870376 c 0,1.35208 1.0914387,2.443519 2.4435187,2.443519 z"
           id="path989"
           style="stroke-width:0.814506" />
        <path
           d="m 16.072531,11.092747 c 0,2.248038 -1.824494,4.072532 -4.072531,4.072532 -2.2480373,0 -4.0725313,-1.824494 -4.0725313,-4.072532 H 6.2984562 c 0,2.875207 2.1258614,5.237275 4.8870378,5.636384 v 2.508679 h 1.629012 v -2.508679 c 2.761176,-0.399109 4.887038,-2.761177 4.887038,-5.636384 z"
           id="path991"
           style="stroke-width:0.814506" />
      </g>
    </g>
  </g>
  <g
     inkscape:groupmode="layer"
     id="layer5"
     inkscape:label="Icon - Off"
     style="display:none">
    <path
       d="m 10.957432,6.6161136 c 0,-0.5375741 0.439833,-0.9774075 0.977407,-0.9774075 0.537574,0 0.977408,0.4398334 0.977408,0.9774075 l -0.0081,3.1847195 1.474257,1.4579669 V 6.6975643 c 0,-1.3520804 -1.091439,-2.4435188 -2.443519,-2.4435188 -1.25434,0 -2.2724729,0.9448273 -2.410939,2.1584416 l 1.433531,1.433531 z m 6.678951,4.9684884 h -1.384661 c 0,0.472413 -0.08145,0.920391 -0.219916,1.33579 l 1.034422,1.034423 c 0.358383,-0.716766 0.570155,-1.523126 0.570155,-2.370213 z M 5.752737,4.9545209 4.6042833,6.1029747 9.4913208,10.990012 v 0.59459 c 0,1.35208 1.0914382,2.443519 2.4435182,2.443519 0.187337,0 0.358383,-0.02443 0.52943,-0.06516 l 1.35208,1.35208 c -0.5783,0.268787 -1.221759,0.423543 -1.88151,0.423543 -2.2480367,0 -4.3168826,-1.710462 -4.3168826,-4.153981 H 6.2332958 c 0,2.777466 2.215457,5.074374 4.8870372,5.473482 v 2.671581 h 1.629013 v -2.671581 c 0.7412,-0.105886 1.441676,-0.366528 2.07699,-0.733056 l 3.420927,3.420926 1.148454,-1.148453 z"
       id="path1062"
       style="stroke-width:0.814506" />
  </g>
  <g
     inkscape:groupmode="layer"
     id="layer6"
     inkscape:label="Badge - Unknown"
     style="display:none">
    <circle
       style="fill:#afafaf;fill-opacity:1;stroke-width:0.5"
       id="path5624"
       cx="17.998291"
       cy="18.05895"
       r="4.6845822" />
    <path
       style="color:#000000;fill:#000000;stroke-width:0.5;-inkscape-stroke:none"
       d="m 17.5,21 h 1 v -1 h -1 z M 18,13 c -2.76,0 -5,2.24 -5,5 0,2.76 2.24,5 5,5 2.76,0 5,-2.24 5,-5 0,-2.76 -2.24,-5 -5,-5 z m 0,9 c -2.205,0 -4,-1.795 -4,-4 0,-2.205 1.795,-4 4,-4 2.205,0 4,1.795 4,4 0,2.205 -1.795,4 -4,4 z m 0,-7 c -1.105,0 -2,0.895 -2,2 h 1 c 0,-0.55 0.45,-1 1,-1 0.55,0 1,0.45 1,1 0,1 -1.5,0.875 -1.5,2.5 h 1 c 0,-1.125 1.5,-1.25 1.5,-2.5 0,-1.105 -0.895,-2 -2,-2 z"
       id="path914" />
  </g>
  <g
     inkscape:groupmode="layer"
     id="layer7"
     inkscape:label="Badge - Error"
     style="display:none">
    <circle
       style="display:inline;fill:#afafaf;fill-opacity:1;stroke-width:0.5"
       id="path5624-0"
       cx="18.031223"
       cy="17.942837"
       r="4.6845822" />
    <path
       d="m 17.5,19.44194 h 1 v 1 h -1 z m 0,-4 h 1 v 3 h -1 z m 0.495,-2.5 c -2.76,0 -4.995,2.24 -4.995,5 0,2.76 2.235,5 4.995,5 2.765,0 5.005,-2.24 5.005,-5 0,-2.76 -2.24,-5 -5.005,-5 z m 0.005,9 c -2.21,0 -4,-1.79 -4,-4 0,-2.21 1.79,-4 4,-4 2.21,0 4,1.79 4,4 0,2.21 -1.79,4 -4,4 z"
       id="path824"
       style="stroke-width:0.5" />
    <path
       style="fill:#dabe21;fill-opacity:1;stroke-width:0.176777"
       d="m 34.490606,43.649418 c -2.350401,-0.461591 -4.525361,-2.196897 -5.60628,-4.473004 -2.234295,-4.704791 0.689662,-10.171692 5.934419,-11.095538 3.257584,-0.573812 6.718798,1.272404 8.270122,4.411296 0.650892,1.316991 0.663365,1.380628 0.663365,3.384329 0,1.930911 -0.03081,2.107153 -0.565941,3.236851 -0.772758,1.631354 -2.100581,2.99447 -3.663505,3.760875 -1.82317,0.894022 -3.282446,1.118819 -5.03218,0.775191 z m 2.6325,-3.794708 v -1.157484 l -1.104854,0.05263 -1.104854,0.05263 -0.05477,0.861422 c -0.08139,1.280228 -0.02091,1.348287 1.198268,1.348287 h 1.066208 z m 0,-6.010408 v -3.102027 l -1.104854,0.05263 -1.104854,0.05263 -0.04887,2.821331 c -0.02688,1.551732 -0.0095,2.923961 0.03865,3.049398 0.05808,0.151355 0.446141,0.228067 1.153726,0.228067 h 1.066208 z"
       id="path968"
       transform="scale(0.5)" />
  </g>
</svg>
