<?xml version="1.0" encoding="UTF-8" standalone="no"?>
<svg
   enable-background="new 0 0 24 24"
   height="48px"
   viewBox="0 0 24 24"
   width="48px"
   fill="#000000"
   version="1.1"
   id="svg997"
   sodipodi:docname="states.svg"
   inkscape:version="1.1 (c4e8f9e, 2021-05-24)"
   inkscape:export-filename="/Users/pgriess/src/pgriess-streamdeck-workrooms/assets/state_call_off@2x.png"
   inkscape:export-xdpi="288"
   inkscape:export-ydpi="288"
   xmlns:inkscape="http://www.inkscape.org/namespaces/inkscape"
   xmlns:sodipodi="http://sodipodi.sourceforge.net/DTD/sodipodi-0.dtd"
   xmlns="http://www.w3.org/2000/svg"
   xmlns:svg="http://www.w3.org/2000/svg">
  <defs
     id="defs1001" />
  <sodipodi:namedview
     id="namedview999"
     pagecolor="#ffffff"
     bordercolor="#666666"
     borderopacity="1.0"
     inkscape:pageshadow="2"
     inkscape:pageopacity="0.0"
     inkscape:pagecheckerboard="0"
     showgrid="false"
     inkscape:zoom="16.9375"
     inkscape:cx="16.619926"
     inkscape:cy="25.298893"
     inkscape:window-width="1806"
     inkscape:window-height="1089"
     inkscape:window-x="693"
     inkscape:window-y="310"
     inkscape:window-maximized="0"
     inkscape:current-layer="layer1" />
  <g
     inkscape:groupmode="layer"
     id="layer11"
     inkscape:label="Background - Testing backdrop"
     style="display:none">
    <rect
       style="fill:#00ff00;fill-opacity:1;stroke-width:0.555709"
       id="rect1048"
       width="24"
       height="24"
       x="1.3322676e-15"
       y="1.3322676e-15" />
  </g>
  <g
     id="g985">
    <rect
       fill="none"
       height="24"
       width="24"
       id="rect979" />
    <rect
       fill="none"
       height="24"
       width="24"
       id="rect981" />
    <rect
       fill="none"
       height="24"
       width="24"
       id="rect983" />
  </g>
  <g
     inkscape:groupmode="layer"
     id="g3015"
     inkscape:label="Background - Dark Grey"
     style="display:none">
    <circle
       style="fill:#323232;fill-opacity:1;stroke-width:0.719963"
       id="circle3013"
       cx="12"
       cy="12"
       r="10.5" />
  </g>
  <g
     inkscape:groupmode="layer"
     id="g949"
     inkscape:label="Background - Light Grey"
     style="display:none">
    <circle
       style="display:inline;fill:#c8c8c8;fill-opacity:1;stroke-width:0.719963"
       id="circle947"
       cx="12"
       cy="12"
       r="10.5" />
  </g>
  <g
     inkscape:groupmode="layer"
     id="layer3"
     inkscape:label="Background - Red"
     style="display:none">
    <ellipse
       style="display:inline;fill:#c81919;fill-opacity:1;stroke-width:0.719963"
       id="circle3013-0"
       cx="12"
       cy="12"
       rx="10.499528"
       ry="10.5" />
  </g>
  <g
     inkscape:groupmode="layer"
     id="g1675"
     inkscape:label="Background - Blue"
     style="display:inline">
    <ellipse
       style="display:inline;fill:#197dff;fill-opacity:1;stroke-width:0.719963"
       id="ellipse1673"
       cx="12"
       cy="12"
       rx="10.499528"
       ry="10.5" />
  </g>
  <g
     inkscape:groupmode="layer"
     id="layer2"
     inkscape:label="Icon - Mic On"
     style="display:none">
    <g
       id="g995"
       transform="matrix(0.9,0,0,0.9,1.2,1.65)">
      <desc
         id="desc948">Derived from https://developers.google.com/fonts/, where icons are licensed under the Apache License 2.0. There is no LICENSE file listing Google or whoever the license-holder is; they just link to the generic ALv2 URL.</desc>
      <g
         id="g987" />
      <g
         id="g993">
        <path
           d="m 12,13.536266 c 1.352081,0 2.443519,-1.091439 2.443519,-2.443519 V 6.2057094 C 14.443519,4.853629 13.352081,3.7621906 12,3.7621906 c -1.352081,0 -2.4435187,1.0914384 -2.4435187,2.4435188 v 4.8870376 c 0,1.35208 1.0914387,2.443519 2.4435187,2.443519 z"
           id="path989"
           style="fill:#c8c8c8;fill-opacity:1;stroke-width:0.814506" />
        <path
           d="m 16.072531,11.092747 c 0,2.248038 -1.824494,4.072532 -4.072531,4.072532 -2.2480373,0 -4.0725313,-1.824494 -4.0725313,-4.072532 H 6.2984562 c 0,2.875207 2.1258614,5.237275 4.8870378,5.636384 v 2.508679 h 1.629012 v -2.508679 c 2.761176,-0.399109 4.887038,-2.761177 4.887038,-5.636384 z"
           id="path991"
           style="fill:#c8c8c8;fill-opacity:1;stroke-width:0.814506" />
      </g>
    </g>
  </g>
  <g
     inkscape:groupmode="layer"
     id="g2460"
     inkscape:label="Icon - Mic None"
     style="display:none">
    <g
       id="g2458"
       transform="matrix(0.9,0,0,0.9,1.2,1.65)">
      <desc
         id="desc2448">Derived from https://developers.google.com/fonts/, where icons are licensed under the Apache License 2.0. There is no LICENSE file listing Google or whoever the license-holder is; they just link to the generic ALv2 URL.</desc>
      <g
         id="g2450" />
      <g
         id="g2456">
        <path
           d="m 12,13.536266 c 1.352081,0 2.443519,-1.091439 2.443519,-2.443519 V 6.2057094 C 14.443519,4.853629 13.352081,3.7621906 12,3.7621906 c -1.352081,0 -2.4435187,1.0914384 -2.4435187,2.4435188 v 4.8870376 c 0,1.35208 1.0914387,2.443519 2.4435187,2.443519 z"
           id="path2452"
           style="fill:#000000;fill-opacity:1;stroke-width:0.814506" />
        <path
           d="m 16.072531,11.092747 c 0,2.248038 -1.824494,4.072532 -4.072531,4.072532 -2.2480373,0 -4.0725313,-1.824494 -4.0725313,-4.072532 H 6.2984562 c 0,2.875207 2.1258614,5.237275 4.8870378,5.636384 v 2.508679 h 1.629012 v -2.508679 c 2.761176,-0.399109 4.887038,-2.761177 4.887038,-5.636384 z"
           id="path2454"
           style="fill:#000000;fill-opacity:1;stroke-width:0.814506" />
      </g>
    </g>
  </g>
  <g
     inkscape:groupmode="layer"
     id="layer5"
     inkscape:label="Icon - Mic Off"
     style="display:none">
    <path
       d="m 11.061689,7.1545023 c 0,-0.4838167 0.39585,-0.8796668 0.879666,-0.8796668 0.483817,0 0.879667,0.3958501 0.879667,0.8796668 l -0.0073,2.8662477 1.326832,1.31217 V 7.2278079 c 0,-1.2168724 -0.982295,-2.1991669 -2.199167,-2.1991669 -1.128906,0 -2.0452261,0.8503445 -2.1698456,1.9425974 l 1.2901776,1.2901779 z m 6.011056,4.4716397 H 15.82655 c 0,0.425172 -0.0733,0.828352 -0.197925,1.202211 l 0.93098,0.930981 c 0.322545,-0.64509 0.51314,-1.370814 0.51314,-2.133192 z M 6.3774633,5.6590688 5.343855,6.6926773 9.7421887,11.091011 v 0.535131 c 0,1.216872 0.9822943,2.199167 2.1991663,2.199167 0.168603,0 0.322545,-0.02199 0.476487,-0.05864 l 1.216872,1.216872 c -0.52047,0.241908 -1.099583,0.381189 -1.693359,0.381189 -2.0232329,0 -3.8851942,-1.539416 -3.8851942,-3.738583 H 6.8099662 c 0,2.499719 1.9939113,4.566936 4.3983338,4.926134 v 2.404422 h 1.466111 v -2.404422 c 0.66708,-0.0953 1.297509,-0.329876 1.869291,-0.659751 l 3.078835,3.078834 1.033608,-1.033608 z"
       id="path1062"
       style="stroke-width:0.733055">
      <desc
         id="desc946">Derived from https://developers.google.com/fonts/, where icons are licensed under the Apache License 2.0. There is no LICENSE file listing Google or whoever the license-holder is; they just link to the generic ALv2 URL.</desc>
    </path>
  </g>
  <g
     inkscape:groupmode="layer"
     id="layer8"
     inkscape:label="Icon - Hand On"
     style="display:none">
    <path
       d="M 9.0069998,7.1333976 6.4824002,9.6579972 c -2.1673449,2.1673438 -2.1673449,5.6922578 0,7.8596028 2.1673449,2.167345 5.6922578,2.167345 7.8596028,0 l 3.929801,-3.929802 c 0.619241,-0.619241 0.619241,-1.627493 0,-2.246735 -0.09527,-0.09527 -0.206414,-0.182596 -0.31756,-0.246108 l 0.452523,-0.452522 c 0.619241,-0.619242 0.619241,-1.6274942 0,-2.2467357 C 18.287682,8.2766125 18.152719,8.1813446 18.009817,8.1098936 18.295621,7.5144692 18.192414,6.7840819 17.700197,6.2918645 17.160345,5.752013 16.33469,5.6805621 15.715448,6.0775116 15.643995,5.9504877 15.556669,5.8314029 15.453462,5.728196 c -0.619241,-0.6192415 -1.627494,-0.6192415 -2.246736,0 l -1.706882,1.7227613 c -0.06351,-0.1111459 -0.150841,-0.2222918 -0.24611,-0.3175597 -0.619241,-0.6192413 -1.6274927,-0.6192413 -2.2467342,0 z m 0.8415333,0.8415333 c 0.1587799,-0.1587799 0.4048879,-0.1587799 0.5636689,0 0.158779,0.1587798 0.158779,0.4048886 0,0.5636684 L 8.1654666,10.777394 c 0.7780212,0.778022 0.7780212,2.032384 0,2.810404 l 0.8415332,0.841534 C 9.95174,13.484591 10.174032,12.103207 9.6897532,10.944115 L 14.064137,6.5697292 c 0.158781,-0.1587799 0.40489,-0.1587799 0.563669,0 0.158781,0.1587798 0.158781,0.4048886 0,0.5636684 l -3.096207,3.0882684 0.841534,0.841533 3.929801,-3.9298014 c 0.158779,-0.1587798 0.404889,-0.1587798 0.563668,0 0.15878,0.1587799 0.15878,0.4048886 0,0.5636684 l -3.929801,3.929802 0.841533,0.841532 3.23117,-3.2311694 c 0.15878,-0.1587798 0.404889,-0.1587798 0.563669,0 0.158779,0.1587798 0.158779,0.4048886 0,0.5636684 l -3.794839,3.786899 0.841534,0.841534 2.246734,-2.246735 c 0.15878,-0.158779 0.40489,-0.158779 0.563669,0 0.15878,0.15878 0.15878,0.404889 0,0.563669 l -3.929801,3.929801 c -1.706884,1.706882 -4.4696532,1.706882 -6.1765366,0 -1.7068834,-1.706883 -1.7068834,-4.469653 0,-6.176536 z M 4.8549068,8.824403 c 0,-2.191162 1.7783342,-3.9694962 3.9694962,-3.9694962 V 5.648806 c -1.7545173,0 -3.175597,1.4210797 -3.175597,3.175597 z m 14.2901862,6.351194 c 0,2.191161 -1.778335,3.969496 -3.969496,3.969496 v -0.793899 c 1.754517,0 3.175597,-1.42108 3.175597,-3.175597 z"
       id="path826"
       style="fill:#000000;fill-opacity:1;stroke-width:0.793899">
      <desc
         id="desc944">Derived from https://developers.google.com/fonts/, where icons are licensed under the Apache License 2.0. There is no LICENSE file listing Google or whoever the license-holder is; they just link to the generic ALv2 URL.</desc>
    </path>
  </g>
  <g
     inkscape:groupmode="layer"
     id="g1396"
     inkscape:label="Icon - Hand Off"
     style="display:none">
    <path
       d="M 9.0069998,7.1333976 6.4824002,9.6579972 c -2.1673449,2.1673438 -2.1673449,5.6922578 0,7.8596028 2.1673449,2.167345 5.6922578,2.167345 7.8596028,0 l 3.929801,-3.929802 c 0.619241,-0.619241 0.619241,-1.627493 0,-2.246735 -0.09527,-0.09527 -0.206414,-0.182596 -0.31756,-0.246108 l 0.452523,-0.452522 c 0.619241,-0.619242 0.619241,-1.6274942 0,-2.2467357 C 18.287682,8.2766125 18.152719,8.1813446 18.009817,8.1098936 18.295621,7.5144692 18.192414,6.7840819 17.700197,6.2918645 17.160345,5.752013 16.33469,5.6805621 15.715448,6.0775116 15.643995,5.9504877 15.556669,5.8314029 15.453462,5.728196 c -0.619241,-0.6192415 -1.627494,-0.6192415 -2.246736,0 l -1.706882,1.7227613 c -0.06351,-0.1111459 -0.150841,-0.2222918 -0.24611,-0.3175597 -0.619241,-0.6192413 -1.6274927,-0.6192413 -2.2467342,0 z m 0.8415333,0.8415333 c 0.1587799,-0.1587799 0.4048879,-0.1587799 0.5636689,0 0.158779,0.1587798 0.158779,0.4048886 0,0.5636684 L 8.1654666,10.777394 c 0.7780212,0.778022 0.7780212,2.032384 0,2.810404 l 0.8415332,0.841534 C 9.95174,13.484591 10.174032,12.103207 9.6897532,10.944115 L 14.064137,6.5697292 c 0.158781,-0.1587799 0.40489,-0.1587799 0.563669,0 0.158781,0.1587798 0.158781,0.4048886 0,0.5636684 l -3.096207,3.0882684 0.841534,0.841533 3.929801,-3.9298014 c 0.158779,-0.1587798 0.404889,-0.1587798 0.563668,0 0.15878,0.1587799 0.15878,0.4048886 0,0.5636684 l -3.929801,3.929802 0.841533,0.841532 3.23117,-3.2311694 c 0.15878,-0.1587798 0.404889,-0.1587798 0.563669,0 0.158779,0.1587798 0.158779,0.4048886 0,0.5636684 l -3.794839,3.786899 0.841534,0.841534 2.246734,-2.246735 c 0.15878,-0.158779 0.40489,-0.158779 0.563669,0 0.15878,0.15878 0.15878,0.404889 0,0.563669 l -3.929801,3.929801 c -1.706884,1.706882 -4.4696532,1.706882 -6.1765366,0 -1.7068834,-1.706883 -1.7068834,-4.469653 0,-6.176536 z M 4.8549068,8.824403 c 0,-2.191162 1.7783342,-3.9694962 3.9694962,-3.9694962 V 5.648806 c -1.7545173,0 -3.175597,1.4210797 -3.175597,3.175597 z m 14.2901862,6.351194 c 0,2.191161 -1.778335,3.969496 -3.969496,3.969496 v -0.793899 c 1.754517,0 3.175597,-1.42108 3.175597,-3.175597 z"
       id="path1394"
       style="fill:#c8c8c8;fill-opacity:1;stroke-width:0.793899">
      <desc
         id="desc1392">Derived from https://developers.google.com/fonts/, where icons are licensed under the Apache License 2.0. There is no LICENSE file listing Google or whoever the license-holder is; they just link to the generic ALv2 URL.</desc>
    </path>
  </g>
  <g
     inkscape:groupmode="layer"
     id="layer9"
     inkscape:label="Icon - Camera On"
     style="display:none">
    <path
       d="M 14.089209,9.2143886 V 14.785612 H 7.12518 V 9.2143886 h 6.964029 M 14.785612,7.8215829 H 6.4287772 c -0.3830215,0 -0.6964028,0.3133814 -0.6964028,0.6964028 v 6.9640283 c 0,0.383022 0.3133813,0.696402 0.6964028,0.696402 h 8.3568348 c 0.383021,0 0.696402,-0.31338 0.696402,-0.696402 v -2.437409 l 2.785611,2.785611 V 8.1697843 L 15.482014,10.955396 V 8.5179857 c 0,-0.3830214 -0.313381,-0.6964028 -0.696402,-0.6964028 z"
       id="path980"
       style="fill:#c8c8c8;fill-opacity:1;stroke-width:0.696403">
      <desc
         id="desc940">Derived from https://developers.google.com/fonts/, where icons are licensed under the Apache License 2.0. There is no LICENSE file listing Google or whoever the license-holder is; they just link to the generic ALv2 URL.</desc>
    </path>
  </g>
  <g
     inkscape:groupmode="layer"
     id="g2392"
     inkscape:label="Icon - Camera None"
     style="display:none">
    <path
       d="M 14.089209,9.2143886 V 14.785612 H 7.12518 V 9.2143886 h 6.964029 M 14.785612,7.8215829 H 6.4287772 c -0.3830215,0 -0.6964028,0.3133814 -0.6964028,0.6964028 v 6.9640283 c 0,0.383022 0.3133813,0.696402 0.6964028,0.696402 h 8.3568348 c 0.383021,0 0.696402,-0.31338 0.696402,-0.696402 v -2.437409 l 2.785611,2.785611 V 8.1697843 L 15.482014,10.955396 V 8.5179857 c 0,-0.3830214 -0.313381,-0.6964028 -0.696402,-0.6964028 z"
       id="path2390"
       style="fill:#000000;fill-opacity:1;stroke-width:0.696403">
      <desc
         id="desc2388">Derived from https://developers.google.com/fonts/, where icons are licensed under the Apache License 2.0. There is no LICENSE file listing Google or whoever the license-holder is; they just link to the generic ALv2 URL.</desc>
    </path>
  </g>
  <g
     inkscape:groupmode="layer"
     id="layer10"
     inkscape:label="Icon - Camera Off"
     style="display:none">
    <path
       d="M 10.60023,9.6113382 9.2074246,8.2185326 6.3173529,5.3354247 5.3354247,6.3173529 7.2366046,8.2185326 H 6.7282304 c -0.3830215,0 -0.6964028,0.3133813 -0.6964028,0.6964028 v 6.9640286 c 0,0.383021 0.3133813,0.696403 0.6964028,0.696403 h 8.3568336 c 0.146246,0 0.271598,-0.05571 0.383023,-0.125353 l 2.21456,2.214562 0.981929,-0.981929 -6.17013,-6.170129 z M 7.4246333,15.182561 V 9.6113382 h 1.204777 L 14.200633,15.182561 Z M 14.388661,9.6113382 v 1.8176108 l 4.178418,4.178418 V 8.5667339 L 15.781468,11.352346 V 8.9149354 c 0,-0.3830215 -0.313381,-0.6964028 -0.696404,-0.6964028 h -3.906819 l 1.392805,1.3928056 z"
       id="path1130"
       style="stroke-width:0.696403">
      <desc
         id="desc942">Derived from https://developers.google.com/fonts/, where icons are licensed under the Apache License 2.0. There is no LICENSE file listing Google or whoever the license-holder is; they just link to the generic ALv2 URL.</desc>
    </path>
  </g>
  <g
     inkscape:groupmode="layer"
     id="layer1"
     inkscape:label="Icon - Call On"
     style="display:none">
    <g
       style="fill:#000000"
       id="g971">
      <path
         d="M 0,0 H 24 V 24 H 0 Z"
         fill="none"
         id="path959" />
      <path
         d="m 16.613,10.793 c 0.735,0.357 1.428,0.805 2.072,1.337 l -0.749,0.749 C 17.53,12.55 17.089,12.256 16.62,11.99 v -1.197 m -9.24,0 v 1.19 C 6.925,12.242 6.484,12.536 6.071,12.872 L 5.322,12.123 c 0.637,-0.525 1.33,-0.966 2.058,-1.33 M 12,8.329 c -3.178,0 -6.062,1.246 -8.197,3.269 -0.126,0.126 -0.203,0.301 -0.203,0.497 0,0.196 0.077,0.371 0.203,0.49 l 1.736,1.736 c 0.126,0.126 0.301,0.203 0.497,0.203 0.189,0 0.364,-0.07 0.49,-0.196 0.553,-0.511 1.176,-0.952 1.862,-1.295 0.231,-0.112 0.392,-0.357 0.392,-0.63 v -2.17 C 9.795,9.904 10.88,9.729 12,9.729 c 1.12,0 2.205,0.175 3.213,0.511 v 2.17 c 0,0.28 0.161,0.518 0.392,0.63 0.686,0.343 1.316,0.777 1.869,1.295 0.126,0.119 0.301,0.196 0.49,0.196 0.196,0 0.371,-0.077 0.497,-0.203 l 1.736,-1.736 C 20.323,12.466 20.4,12.291 20.4,12.095 20.4,11.899 20.323,11.724 20.197,11.598 18.062,9.575 15.178,8.329 12,8.329 Z"
         id="path961"
         style="fill:#ffffff;fill-opacity:1;stroke-width:0.7" />
    </g>
  </g>
  <g
     inkscape:groupmode="layer"
     id="g2311"
     inkscape:label="Icon - Call None"
     style="display:none">
    <g
       style="fill:#000000"
       id="g2309">
      <path
         d="M 0,0 H 24 V 24 H 0 Z"
         fill="none"
         id="path2305" />
      <path
         d="m 16.613,10.793 c 0.735,0.357 1.428,0.805 2.072,1.337 l -0.749,0.749 C 17.53,12.55 17.089,12.256 16.62,11.99 v -1.197 m -9.24,0 v 1.19 C 6.925,12.242 6.484,12.536 6.071,12.872 L 5.322,12.123 c 0.637,-0.525 1.33,-0.966 2.058,-1.33 M 12,8.329 c -3.178,0 -6.062,1.246 -8.197,3.269 -0.126,0.126 -0.203,0.301 -0.203,0.497 0,0.196 0.077,0.371 0.203,0.49 l 1.736,1.736 c 0.126,0.126 0.301,0.203 0.497,0.203 0.189,0 0.364,-0.07 0.49,-0.196 0.553,-0.511 1.176,-0.952 1.862,-1.295 0.231,-0.112 0.392,-0.357 0.392,-0.63 v -2.17 C 9.795,9.904 10.88,9.729 12,9.729 c 1.12,0 2.205,0.175 3.213,0.511 v 2.17 c 0,0.28 0.161,0.518 0.392,0.63 0.686,0.343 1.316,0.777 1.869,1.295 0.126,0.119 0.301,0.196 0.49,0.196 0.196,0 0.371,-0.077 0.497,-0.203 l 1.736,-1.736 C 20.323,12.466 20.4,12.291 20.4,12.095 20.4,11.899 20.323,11.724 20.197,11.598 18.062,9.575 15.178,8.329 12,8.329 Z"
         id="path2307"
         style="fill:#000000;fill-opacity:1;stroke-width:0.7" />
    </g>
  </g>
  <g
     inkscape:groupmode="layer"
     id="layer4"
     inkscape:label="Icon - Call Off"
     style="display:inline">
    <g
       style="fill:#000000"
       id="g1576"
       transform="translate(0,0.07380074)">
      <path
         d="M 0,0 H 24 V 24 H 0 Z"
         fill="none"
         id="path1564" />
      <path
         d="M 8.178,7.1 C 8.22,7.723 8.325,8.332 8.493,8.913 l -0.84,0.84 C 7.366,8.913 7.184,8.024 7.121,7.1 h 1.057 m 6.902,8.414 c 0.595,0.168 1.204,0.273 1.82,0.315 v 1.043 c -0.924,-0.063 -1.813,-0.245 -2.66,-0.525 l 0.84,-0.833 M 8.85,5.7 H 6.4 c -0.385,0 -0.7,0.315 -0.7,0.7 0,6.573 5.327,11.9 11.9,11.9 0.385,0 0.7,-0.315 0.7,-0.7 v -2.443 c 0,-0.385 -0.315,-0.7 -0.7,-0.7 -0.868,0 -1.715,-0.14 -2.499,-0.399 -0.07,-0.028 -0.147,-0.035 -0.217,-0.035 -0.182,0 -0.357,0.07 -0.497,0.203 l -1.54,1.54 C 10.866,14.751 9.242,13.134 8.234,11.153 l 1.54,-1.54 C 9.97,9.417 10.026,9.144 9.949,8.899 9.69,8.115 9.55,7.275 9.55,6.4 9.55,6.015 9.235,5.7 8.85,5.7 Z"
         id="path1566"
         style="fill:#ffffff;fill-opacity:1;stroke-width:0.7" />
    </g>
  </g>
  <g
     inkscape:groupmode="layer"
     id="layer12"
     inkscape:label="Badge - Unknown"
     style="display:none">
    <g
       id="g834"
       transform="matrix(1.083,0,0,1.083,7.0234299,6.9583307)">
      <g
         id="g2325"
         transform="translate(0.35435257,0.40886835)">
        <desc
           id="desc2327">Derived from https://developers.google.com/fonts/, where icons are licensed under the Apache License 2.0. There is no LICENSE file listing Google or whoever the license-holder is; they just link to the generic ALv2 URL.</desc>
        <circle
           style="fill:#323232;fill-opacity:1;stroke-width:0.461681"
           id="path2083"
           cx="9.9786043"
           cy="9.9296827"
           r="4.3067465" />
        <g
           id="g832">
          <path
             d="M 11.917285,5.356057 H 8.0827151 L 5.356057,8.0827151 v 3.8279359 l 2.7266581,2.733293 h 3.8279359 l 2.733293,-2.726659 V 8.0827151 Z m 1.731528,6.149908 -2.142848,2.142848 H 8.4940357 L 6.3511877,11.505965 V 8.4940357 l 2.142848,-2.142848 h 3.0052963 l 2.142846,2.142848 v 3.0119293 z"
             id="path828"
             style="fill:#c8c8c8;fill-opacity:1;stroke-width:0.66342" />
          <polygon
             points="13.28,7.78 12.22,6.72 10,8.94 7.78,6.72 6.72,7.78 8.94,10 6.72,12.22 7.78,13.28 10,11.06 12.22,13.28 13.28,12.22 11.06,10 "
             id="polygon830"
             transform="matrix(0.66342043,0,0,0.66342043,3.3657958,3.3657958)"
             style="fill:#c8c8c8;fill-opacity:1" />
        </g>
      </g>
    </g>
  </g>
</svg>
